<svg width="128" height="128" viewBox="0 0 128 128" fill="none" xmlns="http://www.w3.org/2000/svg">
<rect width="128" height="128" fill="white"/>
<g clip-path="url(#clip0_926_185)">
<path d="M77.739 48.2864C77.739 55.94 71.5335 62.1506 63.8798 62.1506C56.2214 62.1506 50.0157 55.9449 50.0157 48.2864C50.0157 40.628 56.2214 34.4223 63.8798 34.4223C71.5335 34.4223 77.739 40.628 77.739 48.2864ZM45.869 65.614C38.2153 65.614 32.0049 71.8197 32.0049 79.4735C32.0049 87.1272 38.2105 93.3375 45.869 93.3375C53.5274 93.3375 59.7331 87.1318 59.7331 79.4735C59.7331 71.8197 53.5274 65.614 45.869 65.614ZM81.8857 65.614C74.2274 65.614 68.0217 71.8197 68.0217 79.4783C68.0217 87.1366 74.2274 93.3423 81.8857 93.3423C89.5395 93.3423 95.75 87.1366 95.75 79.4783C95.75 71.8197 89.5443 65.614 81.8857 65.614Z" fill="#F06A6A"/>
</g>
<defs>
<clipPath id="clip0_926_185">
<rect width="64" height="59.1554" fill="white" transform="translate(32 34.4223)"/>
</clipPath>
</defs>
</svg>
