<svg width="128" height="128" viewBox="0 0 128 128" fill="none" xmlns="http://www.w3.org/2000/svg">
<rect width="128" height="128" fill="black"/>
<g clip-path="url(#clip0_465_209)">
<path fill-rule="evenodd" clip-rule="evenodd" d="M63.9047 32.6531C46.2622 32.6531 32 47.0204 32 64.7948C32 79.0028 41.1383 91.0296 53.8155 95.2862C55.4005 95.6062 55.9811 94.5946 55.9811 93.7437C55.9811 92.9985 55.9288 90.4444 55.9288 87.7832C47.0537 89.6993 45.2056 83.9517 45.2056 83.9517C43.7793 80.2266 41.666 79.2692 41.666 79.2692C38.7611 77.3003 41.8776 77.3003 41.8776 77.3003C45.0998 77.5132 46.7905 80.5995 46.7905 80.5995C49.6425 85.4949 54.238 84.1117 56.0869 83.2601C56.3507 81.1847 57.1964 79.7479 58.0944 78.9499C51.0158 78.2047 43.5683 75.4377 43.5683 63.0916C43.5683 59.5794 44.8353 56.706 46.8428 54.4712C46.526 53.6732 45.4165 50.3732 47.1602 45.9566C47.1602 45.9566 49.854 45.105 55.9282 49.2559C58.5287 48.5523 61.2106 48.1944 63.9047 48.1914C66.5985 48.1914 69.3447 48.5643 71.8805 49.2559C77.9553 45.105 80.6491 45.9566 80.6491 45.9566C82.3928 50.3732 81.2826 53.6732 80.9659 54.4712C83.0263 56.706 84.241 59.5794 84.241 63.0916C84.241 75.4377 76.7935 78.1512 69.662 78.9499C70.8245 79.9608 71.8276 81.8763 71.8276 84.9097C71.8276 89.2199 71.7753 92.6792 71.7753 93.743C71.7753 94.5946 72.3566 95.6062 73.9409 95.2869C86.6181 91.0289 95.7564 79.0028 95.7564 64.7948C95.8087 47.0204 81.4942 32.6531 63.9047 32.6531Z" fill="white"/>
</g>
<defs>
<clipPath id="clip0_465_209">
<rect width="64" height="62.6939" fill="white" transform="translate(32 32.6531)"/>
</clipPath>
</defs>
</svg>
