<svg width="128" height="128" viewBox="0 0 128 128" fill="none" xmlns="http://www.w3.org/2000/svg">
<rect width="128" height="128" fill="white"/>
<path d="M45.4463 72.443C45.4463 76.1433 42.4235 79.1661 38.7231 79.1661C35.0228 79.1661 32 76.1433 32 72.443C32 68.7426 35.0228 65.7198 38.7231 65.7198H45.4463V72.443Z" fill="#E01E5A"/>
<path d="M48.834 72.443C48.834 68.7426 51.8568 65.7198 55.5571 65.7198C59.2574 65.7198 62.2802 68.7426 62.2802 72.443V89.2768C62.2802 92.9772 59.2574 96 55.5571 96C51.8568 96 48.834 92.9772 48.834 89.2768V72.443Z" fill="#E01E5A"/>
<path d="M55.5571 45.4463C51.8568 45.4463 48.834 42.4235 48.834 38.7231C48.834 35.0228 51.8568 32 55.5571 32C59.2574 32 62.2802 35.0228 62.2802 38.7231V45.4463H55.5571Z" fill="#36C5F0"/>
<path d="M55.557 48.8339C59.2573 48.8339 62.2801 51.8567 62.2801 55.5571C62.2801 59.2574 59.2573 62.2802 55.557 62.2802H38.7231C35.0228 62.2802 32 59.2574 32 55.5571C32 51.8567 35.0228 48.8339 38.7231 48.8339H55.557Z" fill="#36C5F0"/>
<path d="M82.5537 55.5571C82.5537 51.8567 85.5765 48.8339 89.2768 48.8339C92.9772 48.8339 96 51.8567 96 55.5571C96 59.2574 92.9772 62.2802 89.2768 62.2802H82.5537V55.5571Z" fill="#2EB67D"/>
<path d="M79.166 55.557C79.166 59.2573 76.1432 62.2801 72.4429 62.2801C68.7425 62.2801 65.7197 59.2573 65.7197 55.557V38.7231C65.7197 35.0228 68.7425 32 72.4429 32C76.1432 32 79.166 35.0228 79.166 38.7231V55.557Z" fill="#2EB67D"/>
<path d="M72.4429 82.5538C76.1432 82.5538 79.166 85.5766 79.166 89.2769C79.166 92.9772 76.1432 96 72.4429 96C68.7425 96 65.7197 92.9772 65.7197 89.2769V82.5538H72.4429Z" fill="#ECB22E"/>
<path d="M72.4429 79.1661C68.7425 79.1661 65.7197 76.1433 65.7197 72.443C65.7197 68.7426 68.7425 65.7198 72.4429 65.7198H89.2767C92.9771 65.7198 95.9999 68.7426 95.9999 72.443C95.9999 76.1433 92.9771 79.1661 89.2767 79.1661H72.4429Z" fill="#ECB22E"/>
</svg>
