<svg width="128" height="128" viewBox="0 0 128 128" fill="none" xmlns="http://www.w3.org/2000/svg">
<rect width="128" height="128" fill="white"/>
<path d="M94.9347 57.5751L94.8447 57.3452L86.1338 34.6115C85.9566 34.166 85.6428 33.788 85.2374 33.5318C84.8318 33.28 84.3587 33.1587 83.8819 33.1844C83.4052 33.21 82.9478 33.3813 82.5715 33.6751C82.1994 33.9774 81.9294 34.387 81.7984 34.8481L75.9167 52.8431H52.1L46.2183 34.8481C46.0907 34.3845 45.8202 33.9728 45.4452 33.6718C45.0689 33.378 44.6115 33.2067 44.1347 33.181C43.658 33.1554 43.1849 33.2767 42.7792 33.5285C42.3748 33.7857 42.0612 34.1633 41.8828 34.6082L33.1553 57.3319L33.0686 57.5618C31.8146 60.8382 31.6599 64.4335 32.6276 67.8056C33.5954 71.1777 35.6332 74.1438 38.4338 76.2566L38.4638 76.2799L38.5438 76.3366L51.8134 86.2738L58.3782 91.2424L62.3771 94.2616C62.8449 94.6167 63.416 94.809 64.0033 94.809C64.5906 94.809 65.1618 94.6167 65.6295 94.2616L69.6284 91.2424L76.1933 86.2738L89.5429 76.2766L89.5762 76.2499C92.3705 74.1367 94.4036 71.1737 95.3699 67.8062C96.3362 64.4386 96.1834 60.8484 94.9347 57.5751Z" fill="#E24329"/>
<path d="M94.9347 57.5751L94.8447 57.3452C90.6002 58.2164 86.6005 60.0143 83.1313 62.6104L64 77.0763C70.5149 82.0049 76.1866 86.2871 76.1866 86.2871L89.5362 76.2899L89.5695 76.2632C92.3679 74.1501 94.4041 71.1852 95.3717 67.8148C96.3393 64.4443 96.186 60.8508 94.9347 57.5751Z" fill="#FC6D26"/>
<path d="M51.8135 86.2871L58.3783 91.2557L62.3772 94.2749C62.845 94.63 63.4161 94.8223 64.0034 94.8223C64.5907 94.8223 65.1619 94.63 65.6296 94.2749L69.6285 91.2557L76.1933 86.2871C76.1933 86.2871 70.5149 81.9917 64.0001 77.0764C57.4852 81.9917 51.8135 86.2871 51.8135 86.2871Z" fill="#FCA326"/>
<path d="M44.8653 62.6104C41.3989 60.0089 37.4001 58.2064 33.1553 57.3318L33.0686 57.5618C31.8146 60.8382 31.6599 64.4335 32.6276 67.8056C33.5954 71.1777 35.6332 74.1437 38.4338 76.2566L38.4638 76.2799L38.5438 76.3365L51.8134 86.2738C51.8134 86.2738 57.4785 81.9916 64 77.063L44.8653 62.6104Z" fill="#FC6D26"/>
</svg>
