<svg width="128" height="128" viewBox="0 0 128 128" fill="none" xmlns="http://www.w3.org/2000/svg">
<g clip-path="url(#clip0_926_188)">
<path d="M128 0H0V128H128V0Z" fill="#0052CC"/>
<path d="M64.1596 98.88C70.8796 92.16 70.8796 81.12 64.1596 74.4L41.5992 52L31.3595 62.24C30.2395 63.36 30.2395 65.12 31.3595 66.08L64.1596 98.88Z" fill="white"/>
<path d="M96.9594 62.24L64.1594 29.4399L63.999 29.5999C57.279 36.3199 57.279 47.2 63.999 53.92L86.5594 76.32L96.799 66.08C98.079 64.96 98.0794 63.2 96.9594 62.24Z" fill="white"/>
<path d="M64.1596 53.76C57.4396 47.04 57.4396 36.1599 64.1596 29.4399L40.6396 52.8L52.7996 64.96L64.1596 53.76Z" fill="url(#paint0_linear_926_188)"/>
<path d="M75.3602 63.2L64.1602 74.4C70.8802 81.12 70.8802 92.16 64.1602 98.88L87.6801 75.36L75.3602 63.2Z" fill="url(#paint1_linear_926_188)"/>
</g>
<defs>
<linearGradient id="paint0_linear_926_188" x1="63.5988" y1="42.1532" x2="49.41" y2="56.3416" gradientUnits="userSpaceOnUse">
<stop offset="0.0680226" stop-color="white" stop-opacity="0.4"/>
<stop offset="1" stop-color="white"/>
</linearGradient>
<linearGradient id="paint1_linear_926_188" x1="65.0394" y1="85.7192" x2="80.5766" y2="70.1824" gradientUnits="userSpaceOnUse">
<stop offset="0.0680226" stop-color="white" stop-opacity="0.4"/>
<stop offset="0.9077" stop-color="white"/>
</linearGradient>
<clipPath id="clip0_926_188">
<rect width="128" height="128" fill="white"/>
</clipPath>
</defs>
</svg>
