<svg width="24" height="24" viewBox="0 0 24 24" fill="none" xmlns="http://www.w3.org/2000/svg">
<path d="M12.0029 22C14.0011 20.0645 14.0011 16.8848 12.0029 14.9493L5.29455 8.49768L2.24977 11.447C1.91674 11.7696 1.91674 12.2765 2.24977 12.553L12.0029 22Z" fill="white"/>
<path d="M21.7555 11.447L12.0024 2L11.9547 2.04608C9.95651 3.98156 9.95651 7.11521 11.9547 9.0507L18.663 15.5023L21.7078 12.553C22.0884 12.2304 22.0885 11.7235 21.7555 11.447Z" fill="white"/>
<path d="M12.0025 9.00461C10.0043 7.06913 10.0043 3.93548 12.0025 2L5.00879 8.72812L8.62457 12.2304L12.0025 9.00461Z" fill="white"/>
<path d="M15.3337 11.7235L12.0034 14.9493C14.0016 16.8848 14.0016 20.0645 12.0034 22L18.9971 15.2258L15.3337 11.7235Z" fill="white"/>
</svg>
