<svg width="24" height="24" viewBox="0 0 24 24" fill="none" xmlns="http://www.w3.org/2000/svg">
<path d="M2.24496 14.3045C2.20047 14.1148 2.42645 13.9954 2.56426 14.1331L9.86673 21.4356C10.0045 21.5734 9.88505 21.7994 9.69532 21.7549C6.0102 20.8904 3.10946 17.9897 2.24496 14.3045Z" fill="white"/>
<path d="M2.00038 11.3778C1.99683 11.4345 2.01816 11.4898 2.05827 11.5299L12.4701 21.9417C12.5102 21.9819 12.5655 22.0032 12.6222 21.9996C13.096 21.9701 13.5609 21.9076 14.0146 21.8145C14.1675 21.7831 14.2207 21.5952 14.1103 21.4848L2.51519 9.88971C2.4048 9.77936 2.21695 9.83249 2.18554 9.98538C2.09237 10.4391 2.02988 10.904 2.00038 11.3778Z" fill="white"/>
<path d="M2.84209 7.94107C2.80881 8.01584 2.82576 8.10318 2.88361 8.16104L15.8389 21.1163C15.8967 21.1741 15.984 21.1911 16.0588 21.1578C16.416 20.9987 16.7623 20.8193 17.0959 20.621C17.2064 20.5554 17.2234 20.4037 17.1326 20.3128L3.68705 6.86732C3.59623 6.7765 3.44451 6.79353 3.37889 6.90396C3.1806 7.23764 3.00119 7.58385 2.84209 7.94107Z" fill="white"/>
<path d="M4.53162 5.61481C4.45759 5.54078 4.45298 5.42203 4.52275 5.34399C6.35576 3.29188 9.02213 2 11.9903 2C17.5184 2 21.9999 6.48145 21.9999 12.0096C21.9999 14.9777 20.708 17.6441 18.6559 19.4771C18.5778 19.5469 18.4591 19.5423 18.3851 19.4682L4.53162 5.61481Z" fill="white"/>
</svg>
